<svg width="26" height="26" viewBox="0 0 26 26" fill="none" xmlns="http://www.w3.org/2000/svg">
<path d="M13.001 15.4379C14.3472 15.4379 15.4385 14.3466 15.4385 13.0004C15.4385 11.6542 14.3472 10.5629 13.001 10.5629C11.6548 10.5629 10.5635 11.6542 10.5635 13.0004C10.5635 14.3466 11.6548 15.4379 13.001 15.4379Z" fill="black"/>
<path d="M13.001 23.5627C14.3472 23.5627 15.4385 22.4714 15.4385 21.1252C15.4385 19.779 14.3472 18.6877 13.001 18.6877C11.6548 18.6877 10.5635 19.779 10.5635 21.1252C10.5635 22.4714 11.6548 23.5627 13.001 23.5627Z" fill="black"/>
<path d="M13.001 7.31287C14.3472 7.31287 15.4385 6.22156 15.4385 4.87537C15.4385 3.52917 14.3472 2.43787 13.001 2.43787C11.6548 2.43787 10.5635 3.52917 10.5635 4.87537C10.5635 6.22156 11.6548 7.31287 13.001 7.31287Z" fill="black"/>
</svg>
